# xmcd CD database file
#
# Track frame offsets:
#	150
#	14310
#	35302
#	58320
#	80437
#	101770
#	115370
#	129512
#	143267
#	154807
#	168255
#	181537
#	195807
#	208122
#	221337
#	235162
#	249912
#	264350
#	277742
#	291422
#
# Disc length: 4061 seconds
#
# Revision: 0
# Processed by: cddbd v1.5PL3 Copyright (c) Steve Scherf et al.
# Submitted via: CDex 1.50beta10
#
DISCID=090fdb14
DTITLE=Dexter Gordon - Masters Of Jazz CD1
DYEAR=1900
DGENRE=Jazz
TTITLE0=Blowing The Blues Away
TTITLE1=I've Found A New Baby
TTITLE2=Rosetta
TTITLE3=Sweet Lorraine
TTITLE4=I Blowed And Gone
TTITLE5=Blue'N'Boogie
TTITLE6=Takin' Off
TTITLE7=If I Had You
TTITLE8=The Street Beat
TTITLE9=Blow Mr Dexter
TTITLE10=Dexter's Deck
TTITLE11=Dexter Cuttin' Out
TTITLE12=Dexter's Minor Mad
TTITLE13=Looking For A Boy
TTITLE14=Long Tall Dexter
TTITLE15=Dexter Rides Again
TTITLE16=I Can't Escape From You
TTITLE17=Dexter Digs In
TTITLE18=Wake Up Old Maid
TTITLE19=Tridescence
EXTD=
EXTT0=
EXTT1=
EXTT2=
EXTT3=
EXTT4=
EXTT5=
EXTT6=
EXTT7=
EXTT8=
EXTT9=
EXTT10=
EXTT11=
EXTT12=
EXTT13=
EXTT14=
EXTT15=
EXTT16=
EXTT17=
EXTT18=
EXTT19=
PLAYORDER=
